<?xml version="1.0" standalone="no"?>
<!DOCTYPE svg PUBLIC "-//W3C//DTD SVG 20010904//EN"
 "http://www.w3.org/TR/2001/REC-SVG-20010904/DTD/svg10.dtd">
<svg version="1.0" xmlns="http://www.w3.org/2000/svg"
 width="150.000000pt" height="150.000000pt" viewBox="0 0 150.000000 150.000000"
 preserveAspectRatio="xMidYMid meet">
<metadata>
Created by potrace 1.11, written by Peter Selinger 2001-2013
</metadata>
<g transform="translate(0.000000,150.000000) scale(0.100000,-0.100000)"
fill="#000000" stroke="none">
<path d="M1 868 c1 -348 3 -624 5 -613 18 89 50 173 76 197 34 34 35 38 3 38
-24 0 -25 3 -21 33 3 17 10 73 16 122 18 153 20 164 36 158 9 -3 14 2 14 16 0
28 28 27 32 -1 2 -13 0 -54 -4 -93 -16 -167 -18 -199 -9 -180 4 11 13 67 19
125 6 58 18 121 26 140 19 44 19 31 1 -115 -8 -66 -15 -134 -15 -151 l0 -31
67 18 c38 10 89 23 115 30 42 10 48 15 53 43 5 31 12 135 15 211 0 34 2 37 12
21 11 -20 13 -179 2 -223 -6 -24 -5 -26 17 -20 13 4 27 7 31 7 4 0 10 10 14
23 10 29 32 -81 35 -173 1 -46 3 -56 8 -36 l6 29 29 -46 c17 -26 35 -47 40
-47 6 0 -15 -16 -47 -35 -32 -19 -62 -35 -68 -35 -5 0 -9 -4 -9 -10 0 -5 9
-10 20 -10 17 0 20 -7 20 -42 0 -24 3 -66 6 -94 l6 -50 -41 -14 c-23 -7 -45
-18 -48 -23 -4 -6 0 -7 8 -2 11 6 12 5 2 -6 -23 -24 -14 -29 57 -29 51 0 81 6
112 22 55 27 92 60 78 68 -7 4 -6 16 4 34 18 36 25 23 28 -58 l3 -66 80 1 80
0 35 74 c34 73 49 79 49 20 l0 -20 -9 20 c-7 19 -8 19 -17 -5 -6 -14 -13 -40
-16 -57 l-6 -33 68 0 c49 0 72 4 81 15 7 8 17 15 22 15 6 0 5 -7 -2 -15 -10
-13 -9 -15 9 -15 14 0 27 12 40 39 17 33 26 76 47 241 3 19 14 42 24 50 17 13
19 22 13 60 -5 25 -8 68 -7 95 0 28 -1 40 -3 28 -9 -46 -19 -21 -17 40 2 50
-1 63 -14 69 -30 12 100 8 134 -4 38 -14 65 -55 53 -83 -13 -33 -9 -42 7 -15
14 24 15 22 10 -38 -3 -51 -12 -77 -47 -138 -23 -41 -52 -82 -62 -92 -16 -13
-14 -8 6 23 14 22 28 56 32 75 4 19 16 52 26 72 11 21 19 43 18 50 0 7 -14
-14 -31 -47 l-30 -60 5 42 c3 23 17 67 31 99 15 31 24 59 22 62 -5 4 -51 -83
-72 -138 l-14 -35 6 35 c3 19 7 44 9 55 3 11 -3 3 -12 -18 -16 -39 -39 -52
-30 -17 3 13 0 20 -9 20 -8 0 -14 -2 -14 -5 0 -11 26 -61 38 -74 10 -10 12
-27 8 -55 -9 -54 -74 -273 -92 -308 l-15 -28 156 0 155 0 0 56 c0 54 -1 56
-22 50 -75 -22 -174 -46 -188 -46 -13 0 -16 7 -12 30 2 17 8 30 13 30 5 0 9 5
9 10 0 6 -3 9 -7 8 -32 -11 -4 62 44 117 23 27 43 55 43 61 0 6 9 19 20 29 20
18 20 17 -1 -31 -12 -27 -35 -68 -52 -91 -17 -24 -27 -46 -22 -50 4 -5 10 -2
13 6 3 8 16 25 28 38 13 13 24 28 24 32 0 5 7 15 16 22 14 12 14 9 -1 -26 -9
-22 -20 -44 -26 -49 -16 -17 -10 -29 8 -15 36 31 63 111 64 194 l1 80 15 -34
c8 -19 18 -62 23 -95 5 -41 8 28 9 212 l1 272 -61 0 c-55 0 -59 1 -45 16 9 8
16 22 16 30 0 11 6 13 20 9 11 -4 20 -2 20 4 0 7 8 7 25 1 l25 -10 0 320 0
320 -750 0 -750 0 1 -632z m116 10 c-3 -8 -6 -5 -6 6 -1 11 2 17 5 13 3 -3 4
-12 1 -19z m1035 -519 c-9 -3 -41 -6 -72 -7 -30 0 -46 2 -35 5 11 3 29 14 41
24 11 11 24 16 28 12 4 -4 10 3 13 16 6 23 7 23 24 -10 16 -31 16 -35 1 -40z
m-132 17 c0 -20 -12 -26 -38 -20 -12 4 -19 11 -15 20 7 19 53 18 53 0z m307
-38 c-3 -8 -6 -5 -6 6 -1 11 2 17 5 13 3 -3 4 -12 1 -19z m-437 -48 l0 -49
-42 -11 c-24 -6 -51 -15 -60 -20 -26 -15 -22 3 8 39 14 17 35 31 46 31 11 0
18 5 15 13 -4 10 19 47 30 47 1 0 3 -22 3 -50z m65 40 c-3 -5 -11 -10 -16 -10
-6 0 -7 5 -4 10 3 6 11 10 16 10 6 0 7 -4 4 -10z m232 -32 c-3 -8 -6 -5 -6 6
-1 11 2 17 5 13 3 -3 4 -12 1 -19z m-247 -16 c0 -13 -12 -22 -22 -16 -10 6 -1
24 13 24 5 0 9 -4 9 -8z m-223 -39 c13 -20 13 -23 -7 -40 -13 -10 -37 -33 -54
-52 -17 -18 -43 -39 -58 -47 l-28 -15 0 45 c0 25 -4 56 -10 70 -16 44 -4 58
45 50 28 -4 45 -2 50 6 11 17 46 8 62 -17z m460 -50 c-3 -10 -5 -4 -5 12 0 17
2 24 5 18 2 -7 2 -21 0 -30z m-4 -58 c-5 -25 -7 -27 -13 -10 -4 11 -3 26 3 33
14 17 16 12 10 -23z m-396 -17 c-3 -8 -6 -5 -6 6 -1 11 2 17 5 13 3 -3 4 -12
1 -19z"/>
<path d="M1428 823 c7 -3 16 -2 19 1 4 3 -2 6 -13 5 -11 0 -14 -3 -6 -6z"/>
<path d="M265 251 c3 -19 8 -59 12 -88 3 -29 10 -53 16 -53 14 0 2 98 -17 140
l-16 35 5 -34z"/>
<path d="M351 265 c0 -6 7 -26 15 -45 l14 -35 -6 35 c-5 31 -25 69 -23 45z"/>
<path d="M247 195 c3 -22 9 -49 14 -60 7 -18 8 -17 8 5 0 14 -7 41 -14 60
l-14 35 6 -40z"/>
<path d="M1465 180 c-13 -6 -15 -9 -5 -9 8 0 22 4 30 9 18 12 2 12 -25 0z"/>
<path d="M140 164 c0 -6 7 -19 15 -30 8 -10 14 -14 14 -9 0 6 -6 19 -14 29 -8
11 -15 15 -15 10z"/>
<path d="M194 125 c3 -8 9 -21 12 -29 4 -11 -5 -14 -41 -14 -30 1 -50 -4 -56
-13 -7 -11 -12 -12 -29 -1 -12 7 -20 8 -20 2 0 -5 21 -23 48 -40 39 -25 58
-30 110 -30 l62 0 -6 27 c-3 16 -13 47 -21 71 -13 34 -20 42 -40 42 -18 0 -23
-4 -19 -15z"/>
<path d="M1318 133 c7 -3 16 -2 19 1 4 3 -2 6 -13 5 -11 0 -14 -3 -6 -6z"/>
<path d="M292 80 c0 -14 2 -19 5 -12 2 6 2 18 0 25 -3 6 -5 1 -5 -13z"/>
<path d="M310 45 c0 -19 6 -19 14 0 3 8 1 15 -4 15 -6 0 -10 -7 -10 -15z"/>
<path d="M370 10 c-13 -8 -12 -10 3 -10 9 0 17 5 17 10 0 12 -1 12 -20 0z"/>
</g>
</svg>
